<?xml version="1.0" encoding="UTF-8" standalone="no"?>
<svg
   width="1600"
   height="1000"
   viewBox="0 0 1600 1000"
   version="1.1"
   id="svg8"
   xmlns="http://www.w3.org/2000/svg"
   xmlns:svg="http://www.w3.org/2000/svg">
  <defs
     id="defs1">
    <style
       id="style1">
      .navy { stroke:#052b63; fill:none; stroke-linecap:round; stroke-linejoin:round; }
      .teal { stroke:#0aa0a0; fill:none; stroke-linecap:round; stroke-linejoin:round; }
      .subtitle { fill:#052b63; font-family:'Noto Sans',Arial,sans-serif; font-size:54px; font-weight:300; letter-spacing:24px; }
    </style>
  </defs>
  <!-- EMoS wordmark -->
  <g
     class="navy"
     stroke-width="18"
     id="g5">
    <!-- E -->
    <path
       d="M285 255 V505 M285 255 H455 M285 380 H420 M285 505 H455"
       id="path1" />
    <!-- M -->
    <path
       d="M535 505 V255 L650 410 L765 255 V505"
       id="path2" />
    <!-- o: broken circular trajectory container -->
    <path
       d="M1040 315 A108 108 0 0 0 860 470"
       id="path3" />
    <path
       d="M905 505 A108 108 0 0 0 1075 410"
       id="path4" />
    <!-- S -->
    <path
       d="M1310 280 C1250 230 1155 245 1145 315 C1135 385 1210 390 1260 420 C1320 455 1310 520 1240 530 C1190 536 1145 520 1125 500"
       id="path5" />
  </g>
  <!-- Mobility trajectory integrated into the o -->
  <path
     class="teal"
     stroke-width="11"
     d="M865 478 C915 520 975 488 1018 430 C1050 387 1083 360 1110 354"
     id="path6" />
  <!-- Expanded conference name -->
  <path
     d="M 296.568,620 H 275.4 v -38.556 h 21.168 v 2.808 h -18.036 v 14.094 h 17.01 v 2.808 h -17.01 v 16.038 h 18.036 z m 61.25997,-13.608 q 0,6.588 -3.834,10.368 -3.78,3.78 -10.746,3.78 -6.966,0 -10.692,-3.78 -3.672,-3.78 -3.672,-10.476 v -24.84 h 3.132 v 24.84 q 0,5.616 2.916,8.532 2.916,2.916 8.478,2.916 5.454,0 8.37,-2.916 2.97,-2.97 2.97,-8.208 v -25.164 h 3.078 z m 44.03401,-24.948 q 6.912,0 10.368,2.43 3.51,2.376 3.51,8.154 0,4.428 -2.376,6.966 -2.322,2.484 -5.832,3.51 l 10.584,17.496 h -3.726 l -9.828,-16.632 h -9.18 V 620 h -3.132 v -38.556 z m -0.27,2.754 h -6.21 v 16.47 h 7.29 q 4.698,0 7.236,-2.16 2.592,-2.214 2.592,-6.372 0,-4.428 -2.7,-6.156 -2.7,-1.782 -8.208,-1.782 z m 79.72802,16.47 q 0,5.886 -1.944,10.368 -1.944,4.482 -5.832,7.02 -3.834,2.484 -9.558,2.484 -5.832,0 -9.72,-2.484 -3.834,-2.538 -5.778,-7.02 -1.89,-4.536 -1.89,-10.422 0,-5.886 1.944,-10.314 1.998,-4.428 5.886,-6.912 3.942,-2.538 9.72,-2.538 5.562,0 9.396,2.43 3.834,2.376 5.778,6.804 1.998,4.428 1.998,10.584 z m -31.428,-0.054 q 0,5.13 1.512,9.018 1.512,3.834 4.644,5.994 3.132,2.106 7.938,2.106 4.86,0 7.938,-2.106 3.132,-2.106 4.59,-5.94 1.512,-3.888 1.512,-9.018 0,-8.046 -3.51,-12.528 -3.456,-4.482 -10.368,-4.482 -4.806,0 -7.992,2.16 -3.186,2.106 -4.752,5.94 -1.512,3.78 -1.512,8.856 z m 73.84198,-19.17 q 13.878,0 13.878,10.908 0,5.562 -3.618,8.748 -3.564,3.132 -11.07,3.132 h -5.67 V 620 h -3.132 v -38.556 z m -0.324,2.754 h -6.156 v 17.28 h 5.346 q 5.562,0 8.64,-1.944 3.132,-1.944 3.132,-7.02 0,-4.32 -2.7,-6.318 -2.646,-1.998 -8.262,-1.998 z M 591.09602,620 h -21.168 v -38.556 h 21.168 v 2.808 h -18.036 v 14.094 h 17.01 v 2.808 h -17.01 v 16.038 h 18.036 z m 56.83196,0 -5.13,-13.284 h -15.984 l -5.184,13.284 h -3.24 l 15.174,-38.718 h 2.862 l 14.796,38.718 z m -11.232,-30.024 q -0.324,-0.756 -0.864,-2.376 -0.54,-1.62 -0.918,-2.862 -0.432,1.458 -0.918,2.862 -0.486,1.404 -0.81,2.43 l -5.346,13.824 h 13.986 z m 72.492,30.024 h -3.348 l -22.356,-33.696 h -0.162 q 0.108,2.106 0.162,4.482 0.108,2.322 0.108,4.86 V 620 h -2.97 v -38.556 h 3.348 l 22.302,33.588 h 0.162 q -0.108,-1.674 -0.162,-4.266 -0.054,-2.592 -0.054,-4.86 v -24.462 h 2.97 z"
     id="text6"
     class="subtitle"
     style="font-weight:300;font-size:54px;font-family:'Noto Sans', Arial, sans-serif;letter-spacing:24px;fill:#052b63"
     aria-label="EUROPEAN" />
  <path
     d="m 292.14,705 -13.824,-35.262 h -0.162 q 0.054,1.512 0.108,3.456 0.108,1.89 0.108,3.996 V 705 h -2.97 v -38.556 h 4.752 l 13.284,33.75 h 0.162 l 13.446,-33.75 h 4.644 V 705 h -3.132 v -28.134 q 0,-1.782 0.054,-3.618 0.108,-1.89 0.162,-3.456 H 308.61 L 294.678,705 Z m 87.01798,-19.332 q 0,5.886 -1.944,10.368 -1.944,4.482 -5.832,7.02 -3.834,2.484 -9.558,2.484 -5.832,0 -9.72,-2.484 -3.834,-2.538 -5.778,-7.02 -1.89,-4.536 -1.89,-10.422 0,-5.886 1.944,-10.314 1.998,-4.428 5.886,-6.912 3.942,-2.538 9.72,-2.538 5.562,0 9.396,2.43 3.834,2.376 5.778,6.804 1.998,4.428 1.998,10.584 z m -31.428,-0.054 q 0,5.13 1.512,9.018 1.512,3.834 4.644,5.994 3.132,2.106 7.938,2.106 4.86,0 7.938,-2.106 3.132,-2.106 4.59,-5.94 1.512,-3.888 1.512,-9.018 0,-8.046 -3.51,-12.528 -3.456,-4.482 -10.368,-4.482 -4.806,0 -7.992,2.16 -3.186,2.106 -4.752,5.94 -1.512,3.78 -1.512,8.856 z m 74.92199,-19.17 q 7.128,0 10.53,2.268 3.402,2.214 3.402,7.128 0,3.348 -1.944,5.724 -1.89,2.376 -5.562,3.024 v 0.162 q 4.212,0.702 6.426,2.97 2.214,2.268 2.214,6.318 0,3.726 -1.728,6.156 -1.728,2.43 -4.806,3.618 -3.024,1.188 -7.02,1.188 h -12.204 v -38.556 z m 0.702,17.01 q 5.346,0 7.668,-1.836 2.322,-1.836 2.322,-5.454 0,-3.726 -2.538,-5.346 -2.538,-1.62 -8.154,-1.62 h -7.56 v 14.256 z m -8.262,2.7 v 16.092 h 8.802 q 5.292,0 7.884,-2.106 2.592,-2.16 2.592,-6.264 0,-3.996 -2.7,-5.832 -2.7,-1.89 -8.262,-1.89 z M 478.78196,705 h -11.34 v -1.944 l 4.104,-0.594 v -33.426 l -4.104,-0.648 v -1.944 h 11.34 v 1.944 l -4.104,0.648 v 33.426 l 4.104,0.594 z m 32.10005,0 v -38.556 h 3.132 v 35.694 h 18.09 V 705 Z m 60.50398,0 h -11.34 v -1.944 l 4.104,-0.594 v -33.426 l -4.104,-0.648 v -1.944 h 11.34 v 1.944 l -4.104,0.648 v 33.426 l 4.104,0.594 z m 42.57604,0 h -3.132 v -35.748 h -12.42 v -2.808 h 27.972 v 2.808 h -12.42 z m 51.27001,-17.928 11.016,-20.628 h 3.456 l -12.852,23.652 V 705 h -3.132 v -14.688 l -12.96,-23.868 h 3.456 z"
     id="text7"
     class="subtitle"
     style="font-weight:300;font-size:54px;font-family:'Noto Sans', Arial, sans-serif;letter-spacing:24px;fill:#052b63"
     aria-label="MOBILITY" />
  <path
     d="m 296.784,779.956 q 0,3.456 -1.728,5.832 -1.728,2.376 -4.752,3.564 -3.024,1.188 -6.858,1.188 -3.51,0 -6.102,-0.486 -2.592,-0.486 -4.428,-1.242 v -3.078 q 1.998,0.81 4.752,1.404 2.754,0.594 5.94,0.594 4.428,0 7.182,-1.89 2.808,-1.89 2.808,-5.67 0,-2.268 -1.08,-3.726 -1.026,-1.512 -3.24,-2.592 -2.16,-1.134 -5.562,-2.268 -3.24,-1.08 -5.562,-2.43 -2.322,-1.35 -3.564,-3.348 -1.242,-2.052 -1.242,-5.13 0,-3.132 1.566,-5.292 1.62,-2.214 4.374,-3.348 2.808,-1.134 6.372,-1.134 2.808,0 5.346,0.54 2.538,0.54 4.806,1.512 l -1.026,2.7 q -4.644,-1.944 -9.234,-1.944 -3.996,0 -6.534,1.782 -2.484,1.728 -2.484,5.13 0,2.484 1.08,3.996 1.08,1.458 3.132,2.484 2.052,1.026 5.022,2.052 3.402,1.188 5.832,2.484 2.484,1.296 3.834,3.294 1.35,1.944 1.35,5.022 z m 41.17197,-7.884 11.016,-20.628 h 3.456 l -12.852,23.652 V 790 h -3.132 v -14.688 l -12.96,-23.868 h 3.456 z m 60.61196,17.928 -13.824,-35.262 h -0.162 q 0.054,1.512 0.108,3.456 0.108,1.89 0.108,3.996 V 790 h -2.97 v -38.556 h 4.752 l 13.284,33.75 h 0.162 l 13.446,-33.75 h 4.644 V 790 h -3.132 v -28.134 q 0,-1.782 0.054,-3.618 0.108,-1.89 0.162,-3.456 h -0.162 L 401.10593,790 Z m 63.96,-38.556 q 13.878,0 13.878,10.908 0,5.562 -3.618,8.748 -3.564,3.132 -11.07,3.132 h -5.67 V 790 h -3.132 v -38.556 z m -0.324,2.754 h -6.156 v 17.28 h 5.346 q 5.562,0 8.64,-1.944 3.132,-1.944 3.132,-7.02 0,-4.32 -2.7,-6.318 -2.646,-1.998 -8.262,-1.998 z m 79.18803,16.47 q 0,5.886 -1.944,10.368 -1.944,4.482 -5.832,7.02 -3.834,2.484 -9.558,2.484 -5.832,0 -9.72,-2.484 -3.834,-2.538 -5.778,-7.02 -1.89,-4.536 -1.89,-10.422 0,-5.886 1.944,-10.314 1.998,-4.428 5.886,-6.912 3.942,-2.538 9.72,-2.538 5.562,0 9.396,2.43 3.834,2.376 5.778,6.804 1.998,4.428 1.998,10.584 z m -31.428,-0.054 q 0,5.13 1.512,9.018 1.512,3.834 4.644,5.994 3.132,2.106 7.938,2.106 4.86,0 7.938,-2.106 3.132,-2.106 4.59,-5.94 1.512,-3.888 1.512,-9.018 0,-8.046 -3.51,-12.528 -3.456,-4.482 -10.368,-4.482 -4.806,0 -7.992,2.16 -3.186,2.106 -4.752,5.94 -1.512,3.78 -1.512,8.856 z m 85.61399,9.342 q 0,3.456 -1.728,5.832 -1.728,2.376 -4.752,3.564 -3.024,1.188 -6.858,1.188 -3.51,0 -6.102,-0.486 -2.592,-0.486 -4.428,-1.242 v -3.078 q 1.998,0.81 4.752,1.404 2.754,0.594 5.94,0.594 4.428,0 7.182,-1.89 2.808,-1.89 2.808,-5.67 0,-2.268 -1.08,-3.726 -1.026,-1.512 -3.24,-2.592 -2.16,-1.134 -5.562,-2.268 -3.24,-1.08 -5.562,-2.43 -2.322,-1.35 -3.564,-3.348 -1.242,-2.052 -1.242,-5.13 0,-3.132 1.566,-5.292 1.62,-2.214 4.374,-3.348 2.808,-1.134 6.372,-1.134 2.808,0 5.346,0.54 2.538,0.54 4.806,1.512 l -1.026,2.7 q -4.644,-1.944 -9.234,-1.944 -3.996,0 -6.534,1.782 -2.484,1.728 -2.484,5.13 0,2.484 1.08,3.996 1.08,1.458 3.132,2.484 2.052,1.026 5.022,2.052 3.402,1.188 5.832,2.484 2.484,1.296 3.834,3.294 1.35,1.944 1.35,5.022 z M 636.37192,790 h -11.34 v -1.944 l 4.104,-0.594 v -33.426 l -4.104,-0.648 v -1.944 h 11.34 v 1.944 l -4.104,0.648 v 33.426 l 4.104,0.594 z m 60.66604,-13.608 q 0,6.588 -3.834,10.368 -3.78,3.78 -10.746,3.78 -6.966,0 -10.692,-3.78 -3.672,-3.78 -3.672,-10.476 v -24.84 h 3.132 v 24.84 q 0,5.616 2.916,8.532 2.916,2.916 8.478,2.916 5.454,0 8.37,-2.916 2.97,-2.97 2.97,-8.208 v -25.164 h 3.078 z m 51.16201,13.608 -13.824,-35.262 h -0.162 q 0.054,1.512 0.108,3.456 0.108,1.89 0.108,3.996 V 790 h -2.97 v -38.556 h 4.752 l 13.284,33.75 h 0.162 l 13.446,-33.75 h 4.644 V 790 h -3.132 v -28.134 q 0,-1.782 0.054,-3.618 0.108,-1.89 0.162,-3.456 h -0.162 L 750.73797,790 Z"
     id="text8"
     class="subtitle"
     style="font-weight:300;font-size:54px;font-family:'Noto Sans', Arial, sans-serif;letter-spacing:24px;fill:#052b63"
     aria-label="SYMPOSIUM" />
</svg>
